<svg width="558" height="60" viewBox="0 0 558 60" fill="none" xmlns="http://www.w3.org/2000/svg">
<path d="M6.11555 5.72V42.26H21.1755L20.5755 47H0.535547V5.72H6.11555ZM32.2971 15.44V47H26.8971V15.44H32.2971ZM29.5971 0.559997C30.6371 0.559997 31.4771 0.899997 32.1171 1.58C32.7971 2.26 33.1371 3.1 33.1371 4.1C33.1371 5.1 32.8171 5.94 32.1771 6.62C31.5371 7.26 30.6771 7.58 29.5971 7.58C28.5571 7.58 27.6971 7.26 27.0171 6.62C26.3771 5.94 26.0571 5.1 26.0571 4.1C26.0571 3.1 26.3771 2.26 27.0171 1.58C27.6971 0.899997 28.5571 0.559997 29.5971 0.559997ZM56.1143 14.66C58.6343 14.66 60.5943 15.5 61.9943 17.18C63.4343 18.82 64.1543 21.1 64.1543 24.02V47H58.7543V24.68C58.7543 22.64 58.4143 21.18 57.7343 20.3C57.0543 19.38 56.0143 18.92 54.6143 18.92C51.9743 18.92 49.5743 20.8 47.4143 24.56V47H42.0143V15.44H46.6943L47.1143 20.12C49.5543 16.48 52.5543 14.66 56.1143 14.66ZM95.7949 30.26C95.7949 31.1 95.7549 32.04 95.6749 33.08H77.3149C77.4749 36.76 78.2149 39.42 79.5349 41.06C80.8549 42.66 82.6549 43.46 84.9349 43.46C86.3749 43.46 87.6549 43.24 88.7749 42.8C89.9349 42.36 91.1349 41.64 92.3749 40.64L94.7749 43.82C91.8149 46.46 88.4549 47.78 84.6949 47.78C80.5749 47.78 77.3749 46.36 75.0949 43.52C72.8549 40.64 71.7349 36.62 71.7349 31.46C71.7349 26.3 72.8149 22.22 74.9749 19.22C77.1349 16.18 80.1349 14.66 83.9749 14.66C87.7749 14.66 90.6949 16.02 92.7349 18.74C94.7749 21.42 95.7949 25.26 95.7949 30.26ZM90.5749 28.64C90.5749 22.04 88.3949 18.74 84.0349 18.74C82.0349 18.74 80.4549 19.58 79.2949 21.26C78.1349 22.9 77.4749 25.58 77.3149 29.3H90.5749V28.64ZM122.456 39.8C122.456 41.08 122.636 42.04 122.996 42.68C123.356 43.28 123.916 43.74 124.676 44.06L123.536 47.72C121.976 47.48 120.756 47 119.876 46.28C118.996 45.56 118.376 44.46 118.016 42.98C115.976 46.18 113.116 47.78 109.436 47.78C106.636 47.78 104.416 46.92 102.776 45.2C101.136 43.44 100.316 41.1 100.316 38.18C100.316 34.82 101.416 32.26 103.616 30.5C105.816 28.74 108.956 27.86 113.036 27.86H117.116V25.16C117.116 22.96 116.656 21.38 115.736 20.42C114.856 19.42 113.396 18.92 111.356 18.92C109.156 18.92 106.596 19.48 103.676 20.6L102.356 16.82C105.876 15.38 109.156 14.66 112.196 14.66C119.036 14.66 122.456 18.08 122.456 24.92V39.8ZM110.696 43.7C113.496 43.7 115.636 42.06 117.116 38.78V31.34H113.636C108.436 31.34 105.836 33.52 105.836 37.88C105.836 39.76 106.256 41.2 107.096 42.2C107.936 43.2 109.136 43.7 110.696 43.7ZM159.871 14.66C163.191 14.66 165.751 16.08 167.551 18.92C169.391 21.72 170.311 25.8 170.311 31.16C170.311 36.28 169.311 40.34 167.311 43.34C165.351 46.3 162.671 47.78 159.271 47.78C157.671 47.78 156.211 47.42 154.891 46.7C153.571 45.94 152.431 44.88 151.471 43.52L151.111 47H146.311V2.72L151.711 2.12V19.28C152.711 17.84 153.891 16.72 155.251 15.92C156.651 15.08 158.191 14.66 159.871 14.66ZM158.011 43.52C162.451 43.52 164.671 39.4 164.671 31.16C164.671 26.72 164.131 23.58 163.051 21.74C161.971 19.86 160.431 18.92 158.431 18.92C157.031 18.92 155.791 19.34 154.711 20.18C153.671 21.02 152.671 22.2 151.711 23.72V39.38C152.471 40.62 153.391 41.62 154.471 42.38C155.551 43.14 156.731 43.52 158.011 43.52ZM197.397 39.8C197.397 41.08 197.577 42.04 197.937 42.68C198.297 43.28 198.857 43.74 199.617 44.06L198.477 47.72C196.917 47.48 195.697 47 194.817 46.28C193.937 45.56 193.317 44.46 192.957 42.98C190.917 46.18 188.057 47.78 184.377 47.78C181.577 47.78 179.357 46.92 177.717 45.2C176.077 43.44 175.257 41.1 175.257 38.18C175.257 34.82 176.357 32.26 178.557 30.5C180.757 28.74 183.897 27.86 187.977 27.86H192.057V25.16C192.057 22.96 191.597 21.38 190.677 20.42C189.797 19.42 188.337 18.92 186.297 18.92C184.097 18.92 181.537 19.48 178.617 20.6L177.297 16.82C180.817 15.38 184.097 14.66 187.137 14.66C193.977 14.66 197.397 18.08 197.397 24.92V39.8ZM185.637 43.7C188.437 43.7 190.577 42.06 192.057 38.78V31.34H188.577C183.377 31.34 180.777 33.52 180.777 37.88C180.777 39.76 181.197 41.2 182.037 42.2C182.877 43.2 184.077 43.7 185.637 43.7ZM220.091 14.72C221.131 14.72 222.031 14.84 222.791 15.08L221.891 20.3C221.131 20.06 220.311 19.94 219.431 19.94C217.671 19.94 216.231 20.64 215.111 22.04C214.031 23.44 213.171 25.58 212.531 28.46V47H207.131V15.44H211.811L212.231 21.68C213.791 17.04 216.411 14.72 220.091 14.72ZM241.009 14.72C242.049 14.72 242.949 14.84 243.709 15.08L242.809 20.3C242.049 20.06 241.229 19.94 240.349 19.94C238.589 19.94 237.149 20.64 236.029 22.04C234.949 23.44 234.089 25.58 233.449 28.46V47H228.049V15.44H232.729L233.149 21.68C234.709 17.04 237.329 14.72 241.009 14.72ZM266.772 39.8C266.772 41.08 266.952 42.04 267.312 42.68C267.672 43.28 268.232 43.74 268.992 44.06L267.852 47.72C266.292 47.48 265.072 47 264.192 46.28C263.312 45.56 262.692 44.46 262.332 42.98C260.292 46.18 257.432 47.78 253.752 47.78C250.952 47.78 248.732 46.92 247.092 45.2C245.452 43.44 244.632 41.1 244.632 38.18C244.632 34.82 245.732 32.26 247.932 30.5C250.132 28.74 253.272 27.86 257.352 27.86H261.432V25.16C261.432 22.96 260.972 21.38 260.052 20.42C259.172 19.42 257.712 18.92 255.672 18.92C253.472 18.92 250.912 19.48 247.992 20.6L246.672 16.82C250.192 15.38 253.472 14.66 256.512 14.66C263.352 14.66 266.772 18.08 266.772 24.92V39.8ZM255.012 43.7C257.812 43.7 259.952 42.06 261.432 38.78V31.34H257.952C252.752 31.34 250.152 33.52 250.152 37.88C250.152 39.76 250.572 41.2 251.412 42.2C252.252 43.2 253.452 43.7 255.012 43.7ZM304.728 14.66C307.248 14.66 309.208 15.5 310.608 17.18C312.048 18.82 312.768 21.1 312.768 24.02V47H307.368V24.68C307.368 22.64 307.028 21.18 306.348 20.3C305.668 19.38 304.628 18.92 303.228 18.92C300.588 18.92 298.188 20.8 296.028 24.56V47H290.628V15.44H295.308L295.728 20.12C298.168 16.48 301.168 14.66 304.728 14.66ZM341.948 39.8C341.948 41.08 342.128 42.04 342.488 42.68C342.848 43.28 343.408 43.74 344.168 44.06L343.028 47.72C341.468 47.48 340.248 47 339.368 46.28C338.488 45.56 337.868 44.46 337.508 42.98C335.468 46.18 332.608 47.78 328.928 47.78C326.128 47.78 323.908 46.92 322.268 45.2C320.628 43.44 319.808 41.1 319.808 38.18C319.808 34.82 320.908 32.26 323.108 30.5C325.308 28.74 328.448 27.86 332.528 27.86H336.608V25.16C336.608 22.96 336.148 21.38 335.228 20.42C334.348 19.42 332.888 18.92 330.848 18.92C328.648 18.92 326.088 19.48 323.168 20.6L321.848 16.82C325.368 15.38 328.648 14.66 331.688 14.66C338.528 14.66 341.948 18.08 341.948 24.92V39.8ZM330.188 43.7C332.988 43.7 335.128 42.06 336.608 38.78V31.34H333.128C327.928 31.34 325.328 33.52 325.328 37.88C325.328 39.76 325.748 41.2 326.588 42.2C327.428 43.2 328.628 43.7 330.188 43.7ZM372.103 15.44L362.683 47H356.203L346.483 15.44H352.123L359.443 42.44L366.703 15.44H372.103ZM399.428 30.26C399.428 31.1 399.388 32.04 399.308 33.08H380.948C381.108 36.76 381.848 39.42 383.168 41.06C384.488 42.66 386.288 43.46 388.568 43.46C390.008 43.46 391.288 43.24 392.408 42.8C393.568 42.36 394.768 41.64 396.008 40.64L398.408 43.82C395.448 46.46 392.088 47.78 388.328 47.78C384.208 47.78 381.008 46.36 378.728 43.52C376.488 40.64 375.368 36.62 375.368 31.46C375.368 26.3 376.448 22.22 378.608 19.22C380.768 16.18 383.768 14.66 387.608 14.66C391.408 14.66 394.328 16.02 396.368 18.74C398.408 21.42 399.428 25.26 399.428 30.26ZM394.208 28.64C394.208 22.04 392.028 18.74 387.668 18.74C385.668 18.74 384.088 19.58 382.928 21.26C381.768 22.9 381.108 25.58 380.948 29.3H394.208V28.64ZM430.096 16.58C428.376 17.26 425.716 17.6 422.116 17.6C425.476 19.28 427.156 22.04 427.156 25.88C427.156 29.04 426.156 31.6 424.156 33.56C422.196 35.48 419.516 36.44 416.116 36.44C414.836 36.44 413.676 36.24 412.636 35.84C411.516 36.64 410.956 37.66 410.956 38.9C410.956 40.78 412.276 41.72 414.916 41.72H419.056C422.176 41.72 424.656 42.52 426.496 44.12C428.336 45.68 429.256 47.68 429.256 50.12C429.256 53.08 428.116 55.4 425.836 57.08C423.556 58.8 420.216 59.66 415.816 59.66C411.256 59.66 408.016 58.88 406.096 57.32C404.216 55.76 403.276 53.38 403.276 50.18H408.136C408.136 51.5 408.356 52.54 408.796 53.3C409.276 54.1 410.056 54.68 411.136 55.04C412.256 55.44 413.836 55.64 415.876 55.64C418.716 55.64 420.756 55.2 421.996 54.32C423.236 53.44 423.856 52.18 423.856 50.54C423.856 49.02 423.336 47.86 422.296 47.06C421.296 46.26 419.856 45.86 417.976 45.86H414.436C411.676 45.86 409.616 45.34 408.256 44.3C406.896 43.22 406.216 41.8 406.216 40.04C406.216 38 407.316 36.18 409.516 34.58C407.836 33.62 406.576 32.42 405.736 30.98C404.936 29.5 404.536 27.72 404.536 25.64C404.536 22.36 405.576 19.72 407.656 17.72C409.736 15.72 412.476 14.72 415.876 14.72C419.036 14.72 421.476 14.5 423.196 14.06C424.956 13.62 426.756 12.94 428.596 12.02L430.096 16.58ZM415.936 18.5C413.976 18.5 412.476 19.12 411.436 20.36C410.436 21.56 409.936 23.32 409.936 25.64C409.936 27.88 410.456 29.64 411.496 30.92C412.576 32.16 414.056 32.78 415.936 32.78C419.896 32.78 421.876 30.38 421.876 25.58C421.876 23.26 421.376 21.5 420.376 20.3C419.376 19.1 417.896 18.5 415.936 18.5ZM453.686 39.8C453.686 41.08 453.866 42.04 454.226 42.68C454.586 43.28 455.146 43.74 455.906 44.06L454.766 47.72C453.206 47.48 451.986 47 451.106 46.28C450.226 45.56 449.606 44.46 449.246 42.98C447.206 46.18 444.346 47.78 440.666 47.78C437.866 47.78 435.646 46.92 434.006 45.2C432.366 43.44 431.546 41.1 431.546 38.18C431.546 34.82 432.646 32.26 434.846 30.5C437.046 28.74 440.186 27.86 444.266 27.86H448.346V25.16C448.346 22.96 447.886 21.38 446.966 20.42C446.086 19.42 444.626 18.92 442.586 18.92C440.386 18.92 437.826 19.48 434.906 20.6L433.586 16.82C437.106 15.38 440.386 14.66 443.426 14.66C450.266 14.66 453.686 18.08 453.686 24.92V39.8ZM441.926 43.7C444.726 43.7 446.866 42.06 448.346 38.78V31.34H444.866C439.666 31.34 437.066 33.52 437.066 37.88C437.066 39.76 437.486 41.2 438.326 42.2C439.166 43.2 440.366 43.7 441.926 43.7ZM474.401 14.66C476.081 14.66 477.621 14.94 479.021 15.5C480.421 16.06 481.761 16.92 483.041 18.08L480.641 21.32C479.681 20.56 478.721 20 477.761 19.64C476.801 19.24 475.761 19.04 474.641 19.04C472.281 19.04 470.441 20.04 469.121 22.04C467.841 24.04 467.201 27.16 467.201 31.4C467.201 39.32 469.681 43.28 474.641 43.28C475.761 43.28 476.781 43.1 477.701 42.74C478.621 42.34 479.601 41.76 480.641 41L483.161 44.3C480.601 46.62 477.701 47.78 474.461 47.78C470.421 47.78 467.241 46.38 464.921 43.58C462.641 40.78 461.501 36.74 461.501 31.46C461.501 28.02 462.021 25.04 463.061 22.52C464.141 20 465.641 18.06 467.561 16.7C469.521 15.34 471.801 14.66 474.401 14.66ZM494.485 15.44V47H489.085V15.44H494.485ZM491.785 0.559997C492.825 0.559997 493.665 0.899997 494.305 1.58C494.985 2.26 495.325 3.1 495.325 4.1C495.325 5.1 495.005 5.94 494.365 6.62C493.725 7.26 492.865 7.58 491.785 7.58C490.745 7.58 489.885 7.26 489.205 6.62C488.565 5.94 488.245 5.1 488.245 4.1C488.245 3.1 488.565 2.26 489.205 1.58C489.885 0.899997 490.745 0.559997 491.785 0.559997ZM515.182 14.66C519.222 14.66 522.362 16.08 524.602 18.92C526.842 21.76 527.962 25.84 527.962 31.16C527.962 36.28 526.822 40.34 524.542 43.34C522.262 46.3 519.122 47.78 515.122 47.78C511.082 47.78 507.922 46.32 505.642 43.4C503.402 40.48 502.282 36.42 502.282 31.22C502.282 25.98 503.422 21.92 505.702 19.04C507.982 16.12 511.142 14.66 515.182 14.66ZM515.182 18.98C512.822 18.98 511.022 19.98 509.782 21.98C508.542 23.94 507.922 27.02 507.922 31.22C507.922 39.42 510.322 43.52 515.122 43.52C519.922 43.52 522.322 39.4 522.322 31.16C522.322 26.96 521.722 23.88 520.522 21.92C519.322 19.96 517.542 18.98 515.182 18.98ZM549.884 14.66C552.404 14.66 554.364 15.5 555.764 17.18C557.204 18.82 557.924 21.1 557.924 24.02V47H552.524V24.68C552.524 22.64 552.184 21.18 551.504 20.3C550.824 19.38 549.784 18.92 548.384 18.92C545.744 18.92 543.344 20.8 541.184 24.56V47H535.784V15.44H540.464L540.884 20.12C543.324 16.48 546.324 14.66 549.884 14.66Z" fill="white"/>
</svg>
